HIERARCHY
ROOT Hips
{
	OFFSET 0.000000 0.000000 0.000000
	CHANNELS 6 Xposition Yposition Zposition Zrotation Yrotation Xrotation 
	JOINT LHipJoint
	{
		OFFSET 0.000000 0.000000 0.000000
		CHANNELS 3 Zrotation Yrotation Xrotation
		JOINT LeftUpLeg
		{
			OFFSET 1.363060 -1.794630 0.839290
			CHANNELS 3 Zrotation Yrotation Xrotation
			JOINT LeftLeg
			{
				OFFSET 2.448110 -6.726130 0.000000
				CHANNELS 3 Zrotation Yrotation Xrotation
				JOINT LeftFoot
				{
					OFFSET 2.562200 -7.039590 0.000000
					CHANNELS 3 Zrotation Yrotation Xrotation
					JOINT LeftToeBase
					{
						OFFSET 0.157640 -0.433110 2.322550
						CHANNELS 3 Zrotation Yrotation Xrotation
						End Site
						{
							OFFSET 0.000000 0.000000 0.000000
						}
					}
				}
			}
		}
	}
	JOINT RHipJoint
	{
		OFFSET 0.000000 0.000000 0.000000
		CHANNELS 3 Zrotation Yrotation Xrotation
		JOINT RightUpLeg
		{
			OFFSET -1.305520 -1.794630 0.839290
			CHANNELS 3 Zrotation Yrotation Xrotation
			JOINT RightLeg
			{
				OFFSET -2.542530 -6.985550 0.000000
				CHANNELS 3 Zrotation Yrotation Xrotation
				JOINT RightFoot
				{
					OFFSET -2.568260 -7.056230 0.000000
					CHANNELS 3 Zrotation Yrotation Xrotation
					JOINT RightToeBase
					{
						OFFSET -0.164730 -0.452590 2.363150
						CHANNELS 3 Zrotation Yrotation Xrotation
						End Site
						{
							OFFSET 0.000000 0.000000 0.000000
						}
					}
				}
			}
		}
	}
	JOINT LowerBack
	{
		OFFSET 0.000000 0.000000 0.000000
		CHANNELS 3 Zrotation Yrotation Xrotation
		JOINT Spine
		{
			OFFSET 0.028270 2.035590 -0.193380
			CHANNELS 3 Zrotation Yrotation Xrotation
			JOINT Spine1
			{
				OFFSET 0.056720 2.048850 -0.042750
				CHANNELS 3 Zrotation Yrotation Xrotation
				JOINT Neck
				{
					OFFSET 0.000000 0.000000 0.000000
					CHANNELS 3 Zrotation Yrotation Xrotation
					JOINT Neck1
					{
						OFFSET -0.054170 1.746240 0.172020
						CHANNELS 3 Zrotation Yrotation Xrotation
						JOINT Head
						{
							OFFSET 0.104070 1.761360 -0.123970
							CHANNELS 3 Zrotation Yrotation Xrotation
							End Site
							{
								OFFSET 0.000000 0.000000 0.000000
							}
						}
					}
				}
				JOINT LeftShoulder
				{
					OFFSET 0.000000 0.000000 0.000000
					CHANNELS 3 Zrotation Yrotation Xrotation
					JOINT LeftArm
					{
						OFFSET 3.362410 1.200890 -0.311210
						CHANNELS 3 Zrotation Yrotation Xrotation
						JOINT LeftForeArm
						{
							OFFSET 4.983000 -0.000000 -0.000000
							CHANNELS 3 Zrotation Yrotation Xrotation
							JOINT LeftHand
							{
								OFFSET 3.483560 -0.000000 -0.000000
								CHANNELS 3 Zrotation Yrotation Xrotation
								JOINT LeftFingerBase
								{
									OFFSET 0.000000 0.000000 0.000000
									CHANNELS 3 Zrotation Yrotation Xrotation
									JOINT LeftHandIndex1
									{
										OFFSET 0.715260 -0.000000 -0.000000
										CHANNELS 3 Zrotation Yrotation Xrotation
										End Site
										{
											OFFSET 0.000000 0.000000 0.000000
										}
									}
								}
								JOINT LThumb
								{
									OFFSET 0.000000 0.000000 0.000000
									CHANNELS 3 Zrotation Yrotation Xrotation
									End Site
									{
										OFFSET 0.000000 0.000000 0.000000
									}
								}
							}
						}
					}
				}
				JOINT RightShoulder
				{
					OFFSET 0.000000 0.000000 0.000000
					CHANNELS 3 Zrotation Yrotation Xrotation
					JOINT RightArm
					{
						OFFSET -3.136600 1.374050 -0.404650
						CHANNELS 3 Zrotation Yrotation Xrotation
						JOINT RightForeArm
						{
							OFFSET -5.241900 -0.000000 -0.000000
							CHANNELS 3 Zrotation Yrotation Xrotation
							JOINT RightHand
							{
								OFFSET -3.444170 -0.000000 -0.000000
								CHANNELS 3 Zrotation Yrotation Xrotation
								JOINT RightFingerBase
								{
									OFFSET 0.000000 0.000000 0.000000
									CHANNELS 3 Zrotation Yrotation Xrotation
									JOINT RightHandIndex1
									{
										OFFSET -0.622530 -0.000000 -0.000000
										CHANNELS 3 Zrotation Yrotation Xrotation
										End Site
										{
											OFFSET 0.000000 0.000000 0.000000
										}
									}
								}
								JOINT RThumb
								{
									OFFSET 0.000000 0.000000 0.000000
									CHANNELS 3 Zrotation Yrotation Xrotation
									End Site
									{
										OFFSET 0.000000 0.000000 0.000000
									}
								}
							}
						}
					}
				}
			}
		}
	}
}
MOTION
Frames: 5
Frame Time: 0.008333
1.153614 17.862446 5.290744 2.168119 -0.833275 6.234669 -3.897692 -0.501133 1.510115 -13.860195 -1.306950 -5.168147 -0.857802 4.233660 11.657595 0.142699 1.271687 -3.455746 2.211700 -9.293700 -26.718600 2.975518 1.945579 -0.444739 8.773086 -3.644698 -5.435993 -0.549679 -6.728164 16.098732 1.972681 -13.068152 -7.749461 -0.014700 0.782200 -2.149800 -4.950451 -2.810152 -1.628824 -0.325457 -3.638857 -4.530481 3.623673 -2.163513 -1.648470 -10.025901 -10.494942 -3.704285 10.091104 -13.980385 5.948083 2.297800 -6.856300 4.491200 2.874895 5.394318 -0.657995 -94.087672 9.330949 -0.027401 13.983192 -31.511480 -4.459996 -0.412018 0.638157 6.515359 5.730333 -11.415001 -1.296000 -7.125000 0.000000 0.000000 -14.568000 18.129000 9.628400 -2.054671 -5.992986 -0.731138 90.032863 0.795585 6.356396 -4.634760 19.662794 -0.748309 -1.219393 -1.707747 7.284590 -8.629503 -36.396518 4.348600 7.125000 0.000000 0.000000 30.569500 -62.231700 -13.477700 
1.154819 17.861341 5.296064 2.234415 -0.805552 6.232455 -3.901580 -0.504136 1.510072 -13.940623 -1.296278 -5.154524 -0.856096 4.234765 11.662983 0.165205 1.166686 -3.482293 2.188100 -9.247300 -26.572100 2.981592 1.945169 -0.442116 8.628011 -3.216056 -5.152443 -0.521611 -6.630058 15.813931 1.935295 -12.889279 -7.994714 -0.000800 -0.185200 0.508700 -4.986924 -2.819777 -1.632964 -0.330797 -3.653914 -4.561605 3.641866 -2.166107 -1.684297 -10.126019 -10.393204 -3.474626 10.131545 -13.859847 5.762273 2.348900 -6.811700 4.400400 2.871938 5.380600 -0.659537 -94.132515 9.397144 0.237253 14.148965 -31.712923 -4.528297 -0.411730 0.646143 6.204513 5.760735 -11.143215 -1.273900 -7.125000 0.000000 0.000000 -14.566600 18.381700 9.543000 -2.047966 -5.992681 -0.734400 89.960551 0.696256 6.458414 -4.639621 19.664451 -0.750028 -1.221406 -1.696731 7.252225 -8.779334 -36.308338 4.424000 7.125000 0.000000 0.000000 30.339500 -62.204700 -13.346600 
1.156525 17.861442 5.301485 2.275333 -0.797197 6.265778 -3.905633 -0.506898 1.508750 -13.995053 -1.307008 -5.159969 -0.857279 4.232059 11.655741 0.170565 1.143535 -3.510936 2.175300 -9.222000 -26.492300 2.988477 1.943269 -0.438996 8.514344 -2.752259 -4.910784 -0.496476 -6.534651 15.542574 1.890176 -12.673698 -8.253458 -0.031300 -1.141200 3.137400 -4.987667 -2.822615 -1.677410 -0.344048 -3.658868 -4.605641 3.622705 -2.164551 -1.714963 -10.221791 -10.275004 -3.177006 10.205880 -13.727068 5.570636 2.413100 -6.760900 4.297600 2.870442 5.369209 -0.662004 -94.145485 9.454939 0.416607 14.257004 -31.844300 -4.571697 -0.410928 0.649653 6.077401 5.831571 -11.134373 -1.287700 -7.125000 0.000000 0.000000 -14.519500 18.383200 9.509600 -2.045393 -5.994900 -0.735692 89.948035 0.638734 6.350042 -4.600834 19.590409 -0.741318 -1.232929 -1.680676 7.422413 -8.970477 -36.216728 4.520400 7.125000 0.000000 0.000000 30.068300 -62.184700 -13.201100 
1.158934 17.861944 5.304295 2.366631 -0.824288 6.321182 -3.912418 -0.512165 1.503501 -14.119635 -1.337331 -5.184744 -0.861705 4.226138 11.636799 0.158021 1.201071 -3.522219 2.179900 -9.231200 -26.521400 2.996820 1.942312 -0.435614 8.337322 -2.297024 -4.734724 -0.473492 -6.446042 15.296553 1.849790 -12.482674 -8.537697 -0.104300 -2.082400 5.733400 -5.046518 -2.823157 -1.739582 -0.363469 -3.658821 -4.641623 3.627443 -2.161399 -1.723919 -10.300379 -10.193590 -3.045130 10.238817 -13.627854 5.546016 2.449300 -6.717100 4.269000 2.871845 5.368567 -0.663403 -94.188678 9.435443 0.494279 14.343195 -31.944116 -4.607301 -0.411677 0.654880 6.316660 5.817345 -10.899810 -1.260600 -7.125000 0.000000 0.000000 -14.542600 18.608700 9.450400 -2.047093 -5.994686 -0.735147 89.937416 0.633284 6.316083 -4.543987 19.486559 -0.725625 -1.255755 -1.657237 7.553962 -9.448350 -36.118973 4.773500 7.125000 0.000000 0.000000 29.520000 -62.237300 -12.973700 
1.160340 17.861442 5.306504 2.425137 -0.840830 6.356925 -3.917716 -0.515784 1.499715 -14.198362 -1.364562 -5.207963 -0.863368 4.227323 11.637957 0.151318 1.230438 -3.514378 2.182500 -9.236200 -26.537100 3.004157 1.940487 -0.432791 8.212133 -1.821781 -4.524483 -0.448027 -6.349437 15.025278 1.820490 -12.349722 -8.845984 -0.236200 -3.127800 8.634800 -5.098291 -2.835566 -1.775167 -0.358913 -3.674969 -4.671492 3.663285 -2.165784 -1.737405 -10.331122 -10.121565 -2.961010 10.219048 -13.538770 5.532365 2.460400 -6.677600 4.246000 2.873804 5.366583 -0.663838 -94.256686 9.413871 0.679401 14.445740 -32.067457 -4.649183 -0.411417 0.660971 6.519545 5.925057 -10.654734 -1.256300 -7.125000 0.000000 0.000000 -14.483600 18.838700 9.332800 -2.047669 -5.995068 -0.736054 89.893631 0.620508 6.437500 -4.491525 19.392424 -0.710364 -1.275694 -1.633946 7.571782 -9.947366 -35.996484 5.035000 7.125000 0.000000 0.000000 28.925900 -62.275700 -12.714600 
